<svg xmlns="http://www.w3.org/2000/svg" viewBox="0 0 32 32">
<title xmlns="http://www.w3.org/2000/svg">facebook</title>
<path d="M29 0C20.232.01 11.462-.02 2.694.016.917.146-.234 1.95 0 3.634c.01 8.557-.02 17.115.016 25.672.13 1.777 1.935 2.928 3.618 2.694H16V18h-4v-4h4c-.025-1.92-.115-4.01 1.194-5.587C18.48 6.603 20.753 5.828 22.905 6H26v4c-1.529.05-3.078-.105-4.593.09-1.198.324-1.53 1.635-1.407 2.725.109.437-.322 1.414.453 1.185H26l-1 4h-5v14c3.102-.01 6.205.02 9.306-.016 1.777-.13 2.928-1.935 2.694-3.618-.01-8.557.02-17.115-.016-25.672C31.857 1.205 30.496-.027 29 0z"/>
</svg>