<svg xmlns="http://www.w3.org/2000/svg" viewBox="0 0 32 32">
<title xmlns="http://www.w3.org/2000/svg">mixer</title>
<path d="M3.879 1.887a3.458 3.458 0 0 0-2.72.927C-.212 4.098-.297 6.255.788 7.76v.002l5.924 8.209-5.969 8.27h.002c-1.088 1.504-1.002 3.662.37 4.947 1.535 1.442 3.98 1.198 5.218-.516l8.611-11.934a1.32 1.32 0 0 0 0-1.54L6.38 3.327v-.002a3.498 3.498 0 0 0-2.5-1.44zm-.09.931a2.55 2.55 0 0 1 1.816 1.067l8.567 11.869c.09.125.09.303 0 .428l-8.61 11.931c-.92 1.275-2.661 1.446-3.796.38-.991-.93-1.067-2.562-.248-3.694l6.369-8.828L1.56 7.203c-.817-1.132-.74-2.768.25-3.695a2.513 2.513 0 0 1 1.978-.69z"/>
<path d="M26.118 3.186a3.26 3.26 0 0 1 4.81-.46c1.258 1.142 1.343 3.102.33 4.466l-6.534 8.776 6.58 8.84c1.017 1.364.93 3.324-.33 4.467a3.26 3.26 0 0 1-4.809-.46l-9.185-12.34a.853.853 0 0 1 0-1.018z"/>
</svg>