<svg xmlns="http://www.w3.org/2000/svg" viewBox="0 0 32 32">
<title xmlns="http://www.w3.org/2000/svg">obs</title>
<path d="M13.497.195a16.04 16.04 0 0 1 9.559 1.444 16.083 16.083 0 0 1 7.686 8.128c1.558 3.645 1.67 7.876.33 11.604a16.106 16.106 0 0 1-7.671 8.813c-3.27 1.726-7.146 2.24-10.756 1.463-3.683-.773-7.05-2.915-9.334-5.903A15.951 15.95 0 0 1 0 15.806C.012 11.734 1.7 7.71 4.558 4.814A15.967 15.967 0 0 1 13.497.195m-6.098 6.96c-.45 1.985-.119 4.092.779 5.903.565.052 1.133.097 1.69.197a7.23 7.23 0 0 1 4.42 2.896c1.382 1.901 1.694 4.493.874 6.687a7.244 7.244 0 0 1-4.456 4.32c-1.514.538-3.17.461-4.696.017 1.693.768 3.62 1.064 5.45.68 2.382-.45 4.574-1.953 5.789-4.055-.872-1.702-1.111-3.733-.555-5.573.677-2.29 2.573-4.17 4.87-4.83a7.22 7.22 0 0 1 5.565.626c1.728.955 2.997 2.65 3.5 4.555-.043-1.438-.664-2.816-1.46-3.995-1.544-2.253-4.19-3.657-6.913-3.75-1.267 2.254-3.814 3.749-6.414 3.633-3.347.036-6.436-2.636-6.96-5.926a7.186 7.185 0 0 1 1.765-6.133c.364-.434.845-.744 1.241-1.146C9.608 2.413 7.915 4.658 7.4 7.156z"/>
</svg>