<svg xmlns="http://www.w3.org/2000/svg" viewBox="0 0 32 32">
<title xmlns="http://www.w3.org/2000/svg">smashcast</title>
<path d="M7.34 14.422c-.2 0-.5 0-.699-.1l-4.694-1.998a1.854 1.854 0 0 1-.999-2.297 1.854 1.854 0 0 1 2.297-.999l4.694 1.998c.9.4 1.299 1.398 1 2.297-.3.7-.9 1.099-1.599 1.099zM20.824 32c-.7 0-1.399-.4-1.598-1.099l-2.497-6.292c-.4-.899.1-1.898.998-2.297.9-.4 1.898.1 2.298.999l2.497 6.292c.399.899-.1 1.898-1 2.297-.299.1-.499.1-.698.1zM23.02 14.621c-.698 0-1.397-.4-1.597-1.098-.4-.9.1-1.898.999-2.297l6.292-2.497c.899-.4 1.898.1 2.297.998.4.9-.1 1.898-.999 2.298l-6.292 2.497c-.2.1-.4.1-.7.1zM27.515 23.11c-.2 0-.499 0-.699-.199l-4.494-1.997c-.9-.4-1.299-1.399-.9-2.298.4-.898 1.4-1.298 2.298-.898l4.495 1.997c.898.4 1.298 1.398.898 2.297-.3.8-.898 1.099-1.598 1.099zM9.138 31.8c-.2 0-.5 0-.7-.1-.898-.4-1.298-1.398-.898-2.297l2.697-6.192c.4-.9 1.398-1.299 2.297-.9.899.4 1.298 1.4.899 2.298l-2.697 6.192c-.3.6-.999 1-1.598 1zM18.526 9.927c-.2 0-.4 0-.699-.1a1.854 1.854 0 0 1-.998-2.297l1.098-2.796a1.854 1.854 0 0 1 2.297-1c.9.4 1.299 1.4 1 2.298l-1.1 2.797c-.2.699-.898 1.098-1.598 1.098zM11.935 9.827c-.7 0-1.399-.4-1.598-1.098L7.84 2.436c-.4-.898.1-1.897.998-2.297.9-.4 1.898.1 2.298.999l2.496 6.292c.4.9-.1 1.898-.998 2.297-.2.1-.4.1-.7.1zM3.045 22.612c-.699 0-1.398-.4-1.598-1.1-.399-.898.1-1.897 1-2.296l4.194-1.698c.899-.4 1.898.1 2.297.999.4.898-.1 1.897-.999 2.297l-4.194 1.698c-.3.1-.5.1-.7.1z"/>
</svg>