<svg><symbol id="icon-tv" viewBox="0 0 32 32"><path class="path1" d="M30.662 9.003a98.793 98.793 0 0 0-8.815-.851L27 2.999l-2-2-7.017 7.017c-.656-.011-1.317-.017-1.983-.017l-8-8-2 2 6.069 6.069c-3.779.133-7.386.454-10.731.935C.478 12.369 0 16.089 0 20s.477 7.63 1.338 10.997C5.827 31.642 10.786 32 16 32s10.173-.358 14.662-1.003C31.522 27.631 32 23.911 32 20s-.477-7.63-1.338-10.997zm-3.665 18.328C23.63 27.761 19.911 28 16 28s-7.63-.239-10.997-.669C4.358 25.087 4 22.607 4 20s.358-5.087 1.003-7.331C8.369 12.239 12.089 12 16 12s7.63.239 10.996.669C27.641 14.913 28 17.393 28 20s-.358 5.087-1.003 7.331z"/></symbol><symbol id="icon-twitch" viewBox="0 0 32 32"><path class="path1" d="M3 0L0 5v23h8v4h4l4-4h5l9-9V0H3zm23 17l-5 5h-5l-4 4v-4H6V4h20v13z"/><path class="path2" d="M19 8h3v8h-3V8z"/><path class="path3" d="M13 8h3v8h-3V8z"/></symbol><symbol id="icon-youtube" viewBox="0 0 32 32"><path class="path1" d="M31.681 9.6s-.313-2.206-1.275-3.175C29.187 5.15 27.825 5.144 27.2 5.069c-4.475-.325-11.194-.325-11.194-.325h-.012s-6.719 0-11.194.325c-.625.075-1.987.081-3.206 1.356C.631 7.394.325 9.6.325 9.6s-.319 2.588-.319 5.181v2.425c0 2.587.319 5.181.319 5.181s.313 2.206 1.269 3.175c1.219 1.275 2.819 1.231 3.531 1.369 2.563.244 10.881.319 10.881.319s6.725-.012 11.2-.331c.625-.075 1.988-.081 3.206-1.356.962-.969 1.275-3.175 1.275-3.175s.319-2.587.319-5.181v-2.425c-.006-2.588-.325-5.181-.325-5.181zM12.694 20.15v-8.994l8.644 4.513-8.644 4.481z"/></symbol><symbol id="icon-checkbox-unchecked" viewBox="0 0 32 32"><path class="path1" d="M28 0H4C1.8 0 0 1.8 0 4v24c0 2.2 1.8 4 4 4h24c2.2 0 4-1.8 4-4V4c0-2.2-1.8-4-4-4zm0 28H4V4h24v24z"/></symbol><symbol id="icon-radio-unchecked" viewBox="0 0 32 32"><path d="M16 0C7.163 0 0 7.163 0 16s7.163 16 16 16 16-7.163 16-16S24.837 0 16 0zm0 28C9.373 28 4 22.627 4 16S9.373 4 16 4s12 5.373 12 12-5.373 12-12 12z"/></symbol><symbol id="icon-checkbox-checked" viewBox="0 0 32 32"><path class="path1" d="M28 0H4C1.8 0 0 1.8 0 4v24c0 2.2 1.8 4 4 4h24c2.2 0 4-1.8 4-4V4c0-2.2-1.8-4-4-4zM14 24.828l-7.414-7.414 2.828-2.828L14 19.172l9.586-9.586 2.828 2.828L14 24.828z"/></symbol><symbol id="icon-radio-checked" viewBox="0 0 32 32"><path d="M16 0C7.163 0 0 7.163 0 16s7.163 16 16 16 16-7.163 16-16S24.837 0 16 0zm0 28C9.373 28 4 22.627 4 16S9.373 4 16 4s12 5.373 12 12-5.373 12-12 12zm-6-12a6 6 0 1 1 12 0 6 6 0 0 1-12 0z"/></symbol></svg>