<svg><symbol id="icon-smashcast" viewBox="0 0 32 32"><path d="M7.34 14.422c-.2 0-.5 0-.699-.1l-4.694-1.998a1.854 1.854 0 0 1-.999-2.297 1.854 1.854 0 0 1 2.297-.999l4.694 1.998c.9.4 1.299 1.398 1 2.297-.3.7-.9 1.099-1.599 1.099zM20.824 32c-.7 0-1.399-.4-1.598-1.099l-2.497-6.292c-.4-.899.1-1.898.998-2.297.9-.4 1.898.1 2.298.999l2.497 6.292c.399.899-.1 1.898-1 2.297-.299.1-.499.1-.698.1zm2.196-17.379c-.698 0-1.397-.4-1.597-1.098-.4-.9.1-1.898.999-2.297l6.292-2.497c.899-.4 1.898.1 2.297.998.4.9-.1 1.898-.999 2.298l-6.292 2.497c-.2.1-.4.1-.7.1zm4.495 8.489c-.2 0-.499 0-.699-.199l-4.494-1.997c-.9-.4-1.299-1.399-.9-2.298.4-.898 1.4-1.298 2.298-.898l4.495 1.997c.898.4 1.298 1.398.898 2.297-.3.8-.898 1.099-1.598 1.099zM9.138 31.8c-.2 0-.5 0-.7-.1-.898-.4-1.298-1.398-.898-2.297l2.697-6.192c.4-.9 1.398-1.299 2.297-.9.899.4 1.298 1.4.899 2.298l-2.697 6.192c-.3.6-.999 1-1.598 1zm9.388-21.873c-.2 0-.4 0-.699-.1a1.854 1.854 0 0 1-.998-2.297l1.098-2.796a1.854 1.854 0 0 1 2.297-1c.9.4 1.299 1.4 1 2.298l-1.1 2.797c-.2.699-.898 1.098-1.598 1.098zm-6.591-.1c-.7 0-1.399-.4-1.598-1.098L7.84 2.436c-.4-.898.1-1.897.998-2.297.9-.4 1.898.1 2.298.999l2.496 6.292c.4.9-.1 1.898-.998 2.297-.2.1-.4.1-.7.1zm-8.89 12.785c-.699 0-1.398-.4-1.598-1.1-.399-.898.1-1.897 1-2.296l4.194-1.698c.899-.4 1.898.1 2.297.999.4.898-.1 1.897-.999 2.297l-4.194 1.698c-.3.1-.5.1-.7.1z"/></symbol><symbol id="icon-obs" viewBox="0 0 32 32"><path d="M13.497.195a16.04 16.04 0 0 1 9.559 1.444 16.083 16.083 0 0 1 7.686 8.128c1.558 3.645 1.67 7.876.33 11.604a16.106 16.106 0 0 1-7.671 8.813c-3.27 1.726-7.146 2.24-10.756 1.463-3.683-.773-7.05-2.915-9.334-5.903A15.951 15.95 0 0 1 0 15.806C.012 11.734 1.7 7.71 4.558 4.814A15.967 15.967 0 0 1 13.497.195m-6.098 6.96c-.45 1.985-.119 4.092.779 5.903.565.052 1.133.097 1.69.197a7.23 7.23 0 0 1 4.42 2.896c1.382 1.901 1.694 4.493.874 6.687a7.244 7.244 0 0 1-4.456 4.32c-1.514.538-3.17.461-4.696.017 1.693.768 3.62 1.064 5.45.68 2.382-.45 4.574-1.953 5.789-4.055-.872-1.702-1.111-3.733-.555-5.573.677-2.29 2.573-4.17 4.87-4.83a7.22 7.22 0 0 1 5.565.626c1.728.955 2.997 2.65 3.5 4.555-.043-1.438-.664-2.816-1.46-3.995-1.544-2.253-4.19-3.657-6.913-3.75-1.267 2.254-3.814 3.749-6.414 3.633-3.347.036-6.436-2.636-6.96-5.926a7.186 7.185 0 0 1 1.765-6.133c.364-.434.845-.744 1.241-1.146C9.608 2.413 7.915 4.658 7.4 7.156z"/></symbol><symbol id="icon-mixer" viewBox="0 0 32 32"><path d="M3.879 1.887a3.458 3.458 0 0 0-2.72.927C-.212 4.098-.297 6.255.788 7.76v.002l5.924 8.209-5.969 8.27h.002c-1.088 1.504-1.002 3.662.37 4.947 1.535 1.442 3.98 1.198 5.218-.516l8.611-11.934a1.32 1.32 0 0 0 0-1.54L6.38 3.327v-.002a3.498 3.498 0 0 0-2.5-1.44zm-.09.931a2.55 2.55 0 0 1 1.816 1.067l8.567 11.869c.09.125.09.303 0 .428l-8.61 11.931c-.92 1.275-2.661 1.446-3.796.38-.991-.93-1.067-2.562-.248-3.694l6.369-8.828L1.56 7.203c-.817-1.132-.74-2.768.25-3.695a2.513 2.513 0 0 1 1.978-.69zm22.329.368a3.26 3.26 0 0 1 4.81-.46c1.258 1.142 1.343 3.102.33 4.466l-6.534 8.776 6.58 8.84c1.017 1.364.93 3.324-.33 4.467a3.26 3.26 0 0 1-4.809-.46l-9.185-12.34a.853.853 0 0 1 0-1.018z"/></symbol><symbol id="icon-tv" viewBox="0 0 32 32"><path class="path1" d="M30.662 9.003a98.793 98.793 0 0 0-8.815-.851L27 2.999l-2-2-7.017 7.017c-.656-.011-1.317-.017-1.983-.017l-8-8-2 2 6.069 6.069c-3.779.133-7.386.454-10.731.935C.478 12.369 0 16.089 0 20s.477 7.63 1.338 10.997C5.827 31.642 10.786 32 16 32s10.173-.358 14.662-1.003C31.522 27.631 32 23.911 32 20s-.477-7.63-1.338-10.997zm-3.665 18.328C23.63 27.761 19.911 28 16 28s-7.63-.239-10.997-.669C4.358 25.087 4 22.607 4 20s.358-5.087 1.003-7.331C8.369 12.239 12.089 12 16 12s7.63.239 10.996.669C27.641 14.913 28 17.393 28 20s-.358 5.087-1.003 7.331z"/></symbol><symbol id="icon-twitch" viewBox="0 0 32 32"><path class="path1" d="M3 0L0 5v23h8v4h4l4-4h5l9-9V0H3zm23 17l-5 5h-5l-4 4v-4H6V4h20v13z"/><path class="path2" d="M19 8h3v8h-3V8z"/><path class="path3" d="M13 8h3v8h-3V8z"/></symbol><symbol id="icon-youtube" viewBox="0 0 32 32"><path class="path1" d="M31.681 9.6s-.313-2.206-1.275-3.175C29.187 5.15 27.825 5.144 27.2 5.069c-4.475-.325-11.194-.325-11.194-.325h-.012s-6.719 0-11.194.325c-.625.075-1.987.081-3.206 1.356C.631 7.394.325 9.6.325 9.6s-.319 2.588-.319 5.181v2.425c0 2.587.319 5.181.319 5.181s.313 2.206 1.269 3.175c1.219 1.275 2.819 1.231 3.531 1.369 2.563.244 10.881.319 10.881.319s6.725-.012 11.2-.331c.625-.075 1.988-.081 3.206-1.356.962-.969 1.275-3.175 1.275-3.175s.319-2.587.319-5.181v-2.425c-.006-2.588-.325-5.181-.325-5.181zM12.694 20.15v-8.994l8.644 4.513-8.644 4.481z"/></symbol><symbol id="icon-video-camera" viewBox="0 0 32 32"><path d="M12 9a5 5 0 1 1 10.001.001A5 5 0 0 1 12 9zM0 9a5 5 0 1 1 10.001.001A5 5 0 0 1 0 9zm24 10v-3c0-1.1-.9-2-2-2H2c-1.1 0-2 .9-2 2v10c0 1.1.9 2 2 2h20c1.1 0 2-.9 2-2v-3l8 5V14l-8 5zm-4 5H4v-6h16v6z"/></symbol><symbol id="icon-clock" viewBox="0 0 32 32"><path d="M20.586 23.414L14 16.828V8h4v7.172l5.414 5.414zM16 0C7.163 0 0 7.163 0 16s7.163 16 16 16 16-7.163 16-16S24.837 0 16 0zm0 28C9.373 28 4 22.627 4 16S9.373 4 16 4s12 5.373 12 12-5.373 12-12 12z"/></symbol><symbol id="icon-twitter" viewBox="0 0 32 32"><path class="path1" d="M32 7.075a12.941 12.941 0 0 1-3.769 1.031 6.601 6.601 0 0 0 2.887-3.631 13.21 13.21 0 0 1-4.169 1.594A6.565 6.565 0 0 0 22.155 4a6.563 6.563 0 0 0-6.563 6.563c0 .512.056 1.012.169 1.494A18.635 18.635 0 0 1 2.23 5.195a6.56 6.56 0 0 0-.887 3.3 6.557 6.557 0 0 0 2.919 5.463 6.565 6.565 0 0 1-2.975-.819v.081a6.565 6.565 0 0 0 5.269 6.437 6.574 6.574 0 0 1-2.968.112 6.588 6.588 0 0 0 6.131 4.563 13.17 13.17 0 0 1-9.725 2.719 18.568 18.568 0 0 0 10.069 2.95c12.075 0 18.681-10.006 18.681-18.681 0-.287-.006-.569-.019-.85A13.216 13.216 0 0 0 32 7.076z"/></symbol><symbol id="icon-checkbox-unchecked" viewBox="0 0 32 32"><path class="path1" d="M28 0H4C1.8 0 0 1.8 0 4v24c0 2.2 1.8 4 4 4h24c2.2 0 4-1.8 4-4V4c0-2.2-1.8-4-4-4zm0 28H4V4h24v24z"/></symbol><symbol id="icon-cross" viewBox="0 0 32 32"><path class="path1" d="M31.708 25.708L22 16l9.708-9.708a1 1 0 0 0 0-1.414L27.122.292a1 1 0 0 0-1.414-.001L16 9.999 6.292.291a.998.998 0 0 0-1.414.001L.292 4.878a1 1 0 0 0 0 1.414L10 16 .292 25.708a.999.999 0 0 0 0 1.414l4.586 4.586a1 1 0 0 0 1.414 0L16 22l9.708 9.708a1 1 0 0 0 1.414 0l4.586-4.586a.999.999 0 0 0 0-1.414z"/></symbol><symbol id="icon-radio-unchecked" viewBox="0 0 32 32"><path d="M16 0C7.163 0 0 7.163 0 16s7.163 16 16 16 16-7.163 16-16S24.837 0 16 0zm0 28C9.373 28 4 22.627 4 16S9.373 4 16 4s12 5.373 12 12-5.373 12-12 12z"/></symbol><symbol id="icon-checkbox-checked" viewBox="0 0 32 32"><path class="path1" d="M28 0H4C1.8 0 0 1.8 0 4v24c0 2.2 1.8 4 4 4h24c2.2 0 4-1.8 4-4V4c0-2.2-1.8-4-4-4zM14 24.828l-7.414-7.414 2.828-2.828L14 19.172l9.586-9.586 2.828 2.828L14 24.828z"/></symbol><symbol id="icon-checkmark" viewBox="0 0 32 32"><path class="path1" d="M27 4L12 19l-7-7-5 5 12 12L32 9z"/></symbol><symbol id="icon-radio-checked" viewBox="0 0 32 32"><path d="M16 0C7.163 0 0 7.163 0 16s7.163 16 16 16 16-7.163 16-16S24.837 0 16 0zm0 28C9.373 28 4 22.627 4 16S9.373 4 16 4s12 5.373 12 12-5.373 12-12 12zm-6-12a6 6 0 1 1 12 0 6 6 0 0 1-12 0z"/></symbol></svg>